<svg width="3217" height="961" xmlns="http://www.w3.org/2000/svg" xmlns:xlink="http://www.w3.org/1999/xlink" xml:space="preserve" overflow="hidden"><defs><clipPath id="clip0"><rect x="673" y="656" width="3217" height="961"/></clipPath></defs><g clip-path="url(#clip0)" transform="translate(-673 -656)"><path d="M1606 1382.5C1606 1312.64 1662.64 1256 1732.5 1256L3464.5 1256C3534.37 1256 3591 1312.64 3591 1382.5L3591 1382.5C3591 1452.37 3534.36 1509 3464.5 1509L1732.5 1509C1662.64 1509 1606 1452.36 1606 1382.5Z" fill="#FFC000" fill-rule="evenodd"/><path d="M3385.66 953.005 3506.78 953.005C3555.13 952.785 3590.33 960.368 3612.39 975.754 3634.45 991.141 3645.32 1015.65 3644.99 1049.28 3645.32 1083.12 3634.45 1107.76 3612.39 1123.19 3590.33 1138.62 3555.13 1146.22 3506.78 1146L3385.66 1146C3382.33 1146.02 3379.89 1145.64 3378.32 1144.84 3376.76 1144.04 3375.99 1142.67 3376 1140.72L3376 958.279C3375.99 956.328 3376.76 954.954 3378.32 954.158 3379.89 953.361 3382.33 952.977 3385.66 953.005Z" fill="#FFC000" fill-rule="evenodd"/><path d="M1776.47 821.005C1792.2 820.833 1805.28 824.475 1815.72 831.931 1826.16 839.387 1834.07 851.688 1839.45 868.833L1942 1199 1883.08 1199 1790.87 900.181C1789.52 895.801 1787.61 892.591 1785.13 890.551 1782.66 888.51 1779.62 887.501 1776.02 887.524 1772.43 887.501 1769.38 888.51 1766.86 890.551 1764.34 892.591 1762.3 895.801 1760.73 900.181L1664.47 1199 1606 1199 1712.6 868.833C1718.19 851.688 1726.25 839.387 1736.78 831.932 1747.31 824.475 1760.54 820.833 1776.47 821.005Z" fill="#FFC000" fill-rule="evenodd"/><path d="M1318.01 1008.52 1323.53 964.539C1322.84 964.413 1322.22 964.224 1321.53 964.099 1320.84 966.923 1320.08 969.746 1319.39 972.632 1318.64 975.769 1317.89 978.907 1317.2 982.044 1315.75 988.695 1315.19 989.259 1308.79 986.561 1301.82 983.613 1295.17 980.036 1287.51 976.397 1289.02 979.032 1290.27 981.166 1292.34 984.679 1284.25 983.549 1277.03 982.671 1269.94 981.417 1269.06 981.291 1268.37 979.283 1267.93 978.028 1267.56 976.899 1267.93 975.581 1267.74 974.452 1266.18 967.299 1269.38 959.393 1261.09 953.307 1255.44 949.229 1252.68 941.323 1248.35 935.3 1245.09 930.72 1241.32 926.453 1238.06 921.81 1236.49 919.614 1235.68 916.853 1234.23 913.779 1213.9 913.779 1192.5 913.654 1171.16 913.779 1151.77 913.967 1132.44 914.72 1113.05 914.783 1106.34 914.783 1101.63 917.167 1097.93 922.751 1093.91 928.775 1089.33 934.484 1084.56 939.88 1083.43 941.198 1079.98 941.7 1078.35 941.01 1074.77 939.378 1069.62 938.876 1069.94 932.979 1070.06 931.222 1070.31 929.528 1070.69 925.7 1059.27 931.347 1049.23 936.241 1039.12 941.198 1033.6 930.343 1045.71 928.147 1048.6 921.496 1048.29 920.994 1047.97 920.43 1047.66 919.928 1040.07 924.571 1032.41 929.214 1024 934.296 1028.02 924.006 1031.91 914.093 1035.86 904.179 1036.36 904.304 1036.8 904.43 1037.3 904.555 1037.12 907.317 1036.86 910.077 1036.68 912.837 1037.18 912.963 1037.62 913.088 1038.12 913.214 1039.06 910.077 1040.25 907.002 1040.94 903.803 1042.89 895.395 1051.49 889.434 1059.77 890.878 1060.78 891.066 1062.03 891.254 1062.78 890.752 1073.14 884.666 1084.69 887.552 1095.67 886.423 1096.42 886.36 1097.3 887.427 1097.61 887.677 1100.44 885.481 1103.01 883.537 1105.52 881.529 1106.02 881.843 1106.52 882.094 1107.09 882.407 1106.65 885.795 1106.15 889.183 1105.58 893.262 1115.81 884.603 1128.36 885.419 1139.78 882.533 1164.76 876.133 1190.05 870.8 1215.22 865.09 1216.91 864.714 1218.73 864.714 1220.93 864.463 1221.31 867.725 1218.86 872.996 1225.57 871.239 1228.96 870.36 1230.4 868.792 1229.21 865.216 1228.46 862.957 1228.08 860.572 1227.46 858 1233.92 862.204 1240.07 866.094 1246.03 870.235 1246.78 870.737 1246.91 872.305 1247.22 873.372 1249.17 880.588 1251.05 887.74 1253 894.956 1253.31 896.148 1253.94 897.278 1254.44 898.407 1254.94 898.344 1255.51 898.218 1256.01 898.156 1255.44 889.183 1254.94 880.148 1254.38 871.176 1276.28 900.164 1286.01 934.986 1303.52 966.609 1294.29 964.162 1285.69 961.841 1277.1 959.582 1276.78 960.335 1276.47 961.024 1276.15 961.778 1281.61 964.288 1286.89 967.613 1292.6 969.181 1300.94 971.503 1308.28 974.389 1311.74 983.111 1311.92 983.549 1312.74 983.675 1314.5 984.617 1313.37 979.785 1312.74 975.769 1311.49 972.068 1308.16 962.405 1304.96 952.68 1300.94 943.331 1296.67 933.543 1291.72 924.069 1286.57 914.657 1279.29 901.293 1271.57 888.117 1264.23 875.129 1274.77 871.49 1284.56 874.564 1292.09 884.415 1301.7 896.901 1311.61 909.136 1321.4 921.496 1322.66 923.065 1324.48 924.571 1324.92 926.391 1326.74 934.108 1332.89 935.488 1339.16 937.183 1346.94 939.253 1354.6 941.763 1362.38 943.645 1367.4 944.899 1369.85 947.849 1370.66 952.742 1372.61 963.66 1374.43 974.578 1376.88 985.37 1377.76 989.197 1377.07 995.973 1383.59 994.843 1389.87 993.714 1385.29 987.691 1386.35 984.051 1386.67 982.985 1386.35 981.604 1385.98 980.475 1382.09 968.617 1385.54 958.766 1393.82 949.982 1395.89 947.786 1397.96 945.401 1399.28 942.767 1404.24 933.041 1413.09 931.096 1422.75 928.461 1435.99 924.885 1445.47 927.771 1453.82 938.312 1458.52 944.272 1464.61 949.166 1470.2 954.436 1477.48 961.275 1480.74 969.495 1479.86 979.471 1479.11 988.13 1478.98 996.851 1472.27 1003.75 1471.07 1005.01 1471.07 1007.96 1471.33 1009.96 1472.58 1019.38 1469.88 1027.47 1463.92 1034.69 1458.15 1041.71 1452.37 1048.74 1446.91 1056.02 1444.09 1059.72 1441.83 1060.47 1438.19 1057.02 1434.24 1053.32 1429.59 1050.31 1425.58 1046.67 1420.93 1042.4 1416.04 1041.15 1410.08 1043.47 1407.13 1044.6 1403.86 1045.04 1399.72 1044.66 1402.42 1042.91 1405.12 1041.15 1407.88 1039.39 1407.38 1038.76 1406.94 1038.07 1406.44 1037.45 1396.46 1039.83 1386.42 1042.28 1375.12 1044.98 1378.7 1039.01 1381.71 1034.06 1385.66 1027.6 1378.45 1030.8 1374.74 1034.75 1371.79 1040.02 1366.84 1048.99 1361.57 1057.84 1356.04 1066.5 1355.04 1068.13 1352.15 1069.26 1350.02 1069.38 1343.37 1069.76 1336.71 1069.7 1330.06 1069.45 1324.98 1069.26 1322.15 1071.27 1321.09 1076.28 1320.33 1079.74 1319.14 1083.06 1318.14 1086.45 1318.7 1086.7 1319.27 1086.95 1319.83 1087.14 1321.02 1084.63 1322.78 1082.24 1323.35 1079.61 1324.48 1074.34 1327.74 1072.83 1332.57 1072.96 1339.04 1073.08 1345.56 1073.59 1351.96 1072.96 1355.23 1072.65 1358.99 1070.95 1361.25 1068.63 1366.65 1063.17 1371.35 1057.08 1376.19 1051.12 1379.64 1046.86 1383.53 1045.54 1388.99 1047.55 1393.07 1049.05 1397.59 1049.74 1401.92 1050.12 1406.94 1050.56 1410.14 1053.13 1412.27 1057.34 1416.04 1064.68 1419.68 1072.08 1423.57 1079.92 1422.56 1081.05 1421.31 1082.5 1419.3 1084.76 1423.69 1086.32 1424.26 1092.28 1429.84 1092.28 1430.16 1092.28 1430.53 1092.72 1430.79 1092.97 1441.7 1106.78 1457.96 1116.82 1459.97 1136.71 1461.47 1151.51 1464.05 1166.26 1466.05 1181 1466.37 1183.2 1466.3 1185.4 1466.49 1189.1 1462.23 1185.9 1458.9 1183.39 1455.51 1180.94 1455.01 1181.19 1454.44 1181.38 1453.94 1181.63 1454.82 1185.9 1455.76 1190.1 1456.7 1194.62 1444.34 1183.32 1432.1 1172.16 1418.74 1159.92 1423.69 1161.24 1427.21 1162.18 1431.48 1163.31 1426.2 1152.71 1409.45 1152.08 1412.33 1136.58L1410.83 1136.58C1409.01 1140.35 1407.19 1144.11 1405.12 1148.38 1394.32 1135.2 1383.66 1122.34 1373.11 1109.35 1368.15 1103.2 1363.01 1102.39 1357.17 1107.72 1352.9 1111.61 1349.33 1116.19 1344.43 1121.58 1343.49 1117.57 1342.99 1115.5 1342.24 1112.3 1328.74 1122.28 1315.75 1131.94 1302.32 1141.91 1300.38 1137.33 1298.24 1137.9 1294.54 1140.41 1288.58 1144.49 1281.86 1147.37 1275.46 1150.82 1273.77 1151.77 1272.14 1152.83 1270.51 1153.84 1270.82 1154.46 1271.07 1155.03 1271.38 1155.65 1277.72 1152.39 1284.06 1149.19 1290.4 1145.93 1290.65 1146.24 1290.84 1146.56 1291.09 1146.81 1279.04 1157.35 1266.93 1167.95 1254.06 1179.25 1252.31 1174.23 1250.86 1170.21 1249.11 1165.32 1245.21 1167.7 1241.7 1169.83 1238.31 1171.91 1261.47 1190.35 1274.21 1216.45 1292.72 1237.66 1293.1 1238.04 1293.16 1238.73 1293.54 1239.79 1285.69 1240.17 1278.04 1240.55 1270.44 1240.86 1270.44 1241.68 1270.44 1242.55 1270.44 1243.37 1272.01 1243.62 1273.64 1244.25 1275.15 1244.12 1282.81 1243.62 1290.4 1242.55 1298.06 1242.49 1301.01 1242.49 1305.4 1243.62 1306.84 1245.75 1321.53 1267.65 1335.71 1289.86 1349.26 1312.7 1342.61 1308.75 1336.15 1304.36 1329.25 1300.84 1322.28 1297.33 1314.87 1294.82 1304.96 1297.14 1311.11 1302.47 1316.25 1306.93 1321.4 1311.38 1321.21 1311.82 1321.02 1312.2 1320.84 1312.64 1302.95 1309 1285.07 1305.36 1267.18 1301.66 1286.13 1311.01 1307.28 1315.46 1325.54 1329.33 1315.19 1330.02 1306.09 1330.65 1296.99 1331.21 1296.93 1331.59 1296.8 1332.03 1296.74 1332.4 1298.62 1332.84 1300.5 1333.66 1302.32 1333.6 1313.18 1333.34 1324.1 1332.84 1334.96 1332.59 1339.91 1332.47 1340.35 1330.08 1338.41 1326.32 1335.21 1319.92 1331.94 1313.52 1329.37 1306.3 1338.72 1312.14 1348.07 1317.78 1357.24 1323.93 1358.43 1324.75 1358.99 1328.14 1358.3 1329.64 1353.53 1340.5 1348.32 1351.1 1342.8 1362.77 1341.92 1359.63 1341.23 1357.31 1340.1 1353.36 1338.91 1356.56 1338.16 1358.13 1337.78 1359.76 1335.52 1369.05 1335.14 1369.67 1325.92 1370.17 1260.65 1373.94 1195.32 1377.64 1130.06 1381.34 1129.12 1381.34 1128.11 1381.34 1126.86 1380.53 1131.5 1378.39 1136.15 1376.26 1140.79 1374.06 1140.73 1373.37 1140.6 1372.68 1140.54 1372.06 1134.01 1370.61 1127.48 1369.17 1120.9 1367.73 1120.71 1368.17 1120.52 1368.61 1120.27 1369.05 1121.59 1370.68 1122.84 1372.31 1124.47 1374.32 1117.44 1379.02 1110.6 1383.54 1103.32 1388.37 1110.41 1396.4 1109.66 1405.62 1109.85 1414.72 1110.23 1431.04 1114.06 1446.28 1124.35 1459.27 1116.63 1465.92 1105.21 1465.42 1097.74 1458.64 1091.34 1452.81 1084.62 1447.29 1078.41 1441.26 1076.09 1439 1074.14 1435.87 1073.26 1432.79 1068.43 1416.17 1064.16 1399.35 1059.21 1382.72 1057.7 1377.58 1055.25 1372.37 1051.93 1368.23 1045.65 1360.45 1045.59 1351.04 1043.77 1342.07 1043.08 1338.61 1050.67 1332.28 1056.19 1332.53 1063.79 1332.9 1071.82 1333.28 1078.66 1336.1 1084.75 1338.68 1090.08 1340.12 1096.42 1338.68 1101 1337.67 1105.77 1337.23 1110.48 1335.1 1108.78 1334.54 1107.09 1333.97 1103.95 1332.97 1117.44 1330.21 1129.68 1327.7 1141.92 1325.25 1154.53 1322.74 1167.27 1320.73 1179.76 1317.72 1186.22 1316.15 1189.8 1317.6 1192.75 1323.49 1195.76 1329.45 1196.89 1329.52 1202.67 1328.14 1201.41 1326 1198.84 1323.62 1199.21 1321.74 1199.59 1319.6 1202.48 1317.91 1204.42 1316.15 1209.32 1311.64 1214.03 1306.93 1219.23 1302.79 1220.93 1301.47 1224.07 1300.97 1226.2 1301.53 1231.85 1302.98 1237.25 1305.24 1242.77 1307.18 1245.15 1308 1247.91 1311.13 1249.73 1306.74 1251.3 1302.91 1250.24 1299.21 1246.28 1297.64 1242.2 1296.01 1237.81 1294.57 1233.48 1294.32 1224.07 1293.82 1216.41 1290.05 1209.7 1283.78 1195.89 1271.04 1182.02 1258.43 1168.21 1245.63 1160.81 1238.73 1158.24 1227.12 1162.38 1217.27 1166.2 1208.17 1170.72 1199.32 1174.87 1190.35 1175.74 1188.47 1176.43 1186.46 1177.25 1184.39 1176.06 1184.2 1175.43 1183.95 1175.37 1184.08 1168.53 1193.55 1161.56 1202.9 1155.1 1212.63 1151.58 1217.9 1151.39 1223.98 1153.78 1230.07 1154.6 1232.08 1155.16 1234.21 1156.35 1237.85 1151.9 1234.21 1148.57 1231.57 1145.31 1228.88 1132.57 1218.34 1119.89 1207.67 1107.03 1197.25 1103.57 1194.49 1103.45 1192.42 1105.77 1188.78 1114.12 1175.42 1122.21 1161.93 1130.12 1148.31 1132.76 1143.73 1136.08 1141.85 1141.35 1141.98 1157.29 1142.48 1173.23 1142.73 1189.17 1142.86 1191.62 1142.86 1194.07 1141.73 1196.45 1141.04 1197.58 1140.72 1199.15 1139.53 1199.72 1139.91 1208.44 1145.8 1208.31 1136.08 1212.33 1133.69 1212.21 1133.07 1212.02 1132.44 1211.89 1131.75 1190.55 1133.95 1169.28 1136.08 1147.94 1138.28 1147.69 1137.65 1147.5 1137.02 1147.25 1136.39 1172.23 1122.59 1197.14 1108.72 1221.93 1095.05 1218.42 1094.29 1213.84 1093.29 1207.81 1092.03 1216.28 1087.7 1223.75 1084.38 1230.72 1080.11 1243.08 1072.58 1255.7 1068.19 1270.13 1073.65 1272.26 1074.47 1274.77 1074.28 1277.6 1073.46 1276.4 1072.77 1275.28 1071.89 1274.02 1071.39 1268.37 1069.26 1262.66 1067.25 1257.01 1065.18 1250.4 1062.75 1245.05 1064.24 1240.95 1069.63 1238.19 1062.79 1243.14 1044.41 1249.04 1041.15 1250.3 1040.46 1252.87 1041.27 1254.5 1042.03 1267.49 1048.55 1280.36 1055.33 1293.22 1061.98 1294.98 1062.92 1296.8 1063.74 1299.62 1063.61 1298.31 1062.42 1297.18 1060.98 1295.73 1059.97 1281.17 1049.81 1266.68 1039.58 1251.93 1029.6 1247.04 1026.34 1246.47 1023.08 1249.36 1018 1253.5 1010.65 1256.95 1002.87 1260.53 995.22 1262.6 990.765 1265.61 989.197 1270.69 989.824 1282.49 991.142 1294.42 992.208 1306.28 992.773 1311.49 993.024 1314.06 994.969 1314.5 1000.11 1314.75 1002.87 1315.44 1005.57 1315.94 1008.33 1316.63 1008.4 1317.26 1008.52 1317.95 1008.58Z" fill-rule="evenodd"/><path d="M897 1465C899.637 1460.8 902.212 1456.54 904.974 1452.41 915.711 1436.31 926.072 1419.96 937.436 1404.36 949.492 1387.76 962.364 1371.72 975.299 1355.81 977.622 1352.99 981.954 1351.24 985.659 1350.24 998.092 1346.79 1010.71 1343.97 1023.21 1340.84 1025.72 1340.22 1028.1 1339.15 1030.37 1337.71L1008.01 1337.71C1017.68 1322.93 1030.99 1317.6 1049.2 1320.61 1054.67 1321.49 1060.25 1321.49 1065.78 1321.86 1065.78 1321.3 1065.9 1320.67 1065.97 1320.11 1052.72 1318.04 1039.47 1315.91 1025.15 1313.66 1034.64 1302 1043.49 1291.1 1052.47 1280.27 1069.8 1259.28 1087.32 1238.42 1104.52 1217.31 1107.53 1213.62 1109.79 1212.93 1114 1215.68 1128.32 1225.08 1142.95 1234.04 1157.45 1243.12 1163.04 1246.63 1163.1 1247.13 1158.27 1251.89 1145.52 1264.23 1132.65 1276.51 1119.9 1288.79 1118.4 1290.23 1117.02 1291.79 1115.57 1293.36 1116.01 1293.86 1116.51 1294.36 1116.95 1294.86 1132.21 1281.52 1147.47 1268.18 1162.79 1254.83 1170.45 1265.92 1169.76 1270.56 1160.09 1277.39 1137.86 1293.11 1115.7 1308.89 1093.47 1324.68 1091.65 1325.93 1089.83 1327.12 1088.01 1328.31 1080.53 1320.61 1079.97 1320.67 1069.55 1324.49 1060.13 1327.94 1050.52 1330.94 1040.98 1334.14 1038.9 1334.83 1036.9 1335.58 1034.89 1336.27 1038.53 1345.23 1041.98 1353.75 1045.5 1362.2 1047.07 1366.02 1046.82 1368.97 1042.99 1371.54 995.705 1402.42 948.487 1433.43 901.27 1464.31 900.265 1464.94 899.198 1465.44 898.13 1466L897 1465Z" fill-rule="evenodd"/><path d="M1471.41 1144.6C1472.53 1147.31 1473.59 1150.02 1474.71 1152.72 1475.15 1152.72 1475.64 1152.6 1476.08 1152.6 1475.89 1150.71 1476.08 1148.63 1475.33 1146.99 1472.84 1141.33 1474.59 1137.3 1478.76 1133.03 1491.09 1120.38 1496.02 1103.64 1501.75 1087.53 1504.67 1079.41 1506.92 1070.98 1509.16 1062.61 1510.28 1058.4 1512.4 1056.44 1516.89 1057.14 1521.62 1057.83 1526.54 1057.7 1531.15 1058.77 1532.96 1059.21 1534.27 1061.79 1535.89 1063.37 1536.76 1064.18 1537.75 1064.88 1539 1065.82 1534.2 1078.78 1529.34 1092.19 1524.36 1105.53 1515.51 1129.12 1506.67 1152.72 1497.82 1176.32 1495.89 1181.48 1493.96 1186.51 1487.61 1188.02 1486.67 1188.27 1486.42 1191.48 1485.92 1193.37 1485.42 1195.51 1485.74 1198.85 1484.49 1199.66 1481.56 1201.49 1477.95 1202.24 1474.52 1203 1474.09 1203.06 1472.65 1200.55 1472.47 1199.1 1470.54 1185.07 1468.42 1171.1 1467.05 1157 1466.67 1152.97 1468.61 1148.69 1469.48 1144.54 1470.1 1144.54 1470.72 1144.6 1471.35 1144.67Z" fill-rule="evenodd"/><path d="M860 1466C850.602 1479.33 842.207 1491.29 833.811 1503.19 834.187 1503.69 834.5 1504.13 834.876 1504.63 841.267 1500.45 847.657 1496.28 854.111 1492.04 854.487 1492.29 854.863 1492.54 855.239 1492.85 850.352 1507.99 845.464 1523.13 840.64 1538.27 838.886 1543.81 837.445 1549.42 835.503 1554.84 834.938 1556.4 833.247 1558.7 831.994 1558.77 824.601 1559.14 817.208 1558.95 809 1558.95 810.065 1549.61 811.067 1541.14 812.07 1532.66 812.32 1530.29 812.32 1527.8 813.072 1525.56 814.075 1522.63 815.015 1518.52 817.208 1517.4 823.661 1514.1 824.601 1509.24 823.849 1502.94 823.16 1496.96 822.846 1490.92 823.034 1484.94 823.097 1482.88 824.726 1479.83 826.481 1479.08 837.006 1474.66 847.72 1470.73 860 1466Z" fill-rule="evenodd"/><path d="M1548.6 1021.73C1545.44 1023.92 1543.73 1025.18 1541.96 1026.3 1540.13 1027.43 1538.24 1028.37 1536.34 1029.38 1536.47 1029.88 1536.66 1030.32 1536.78 1030.82 1541.08 1029.94 1545.38 1029 1551 1027.87 1546.83 1037.02 1543.1 1045.17 1539.31 1053.26 1538.93 1054.08 1538.11 1054.95 1537.29 1055.33 1526.17 1060.41 1509.8 1053.39 1505.57 1041.41 1508.1 1040.28 1510.69 1039.09 1513.28 1037.9 1513.15 1037.53 1513.02 1037.15 1512.96 1036.77 1510.69 1037.02 1508.41 1037.34 1506.07 1037.59 1501.33 1029.5 1502.03 1021.1 1508.47 1010.01 1513.34 1015.52 1505.06 1024.11 1513.59 1028.94 1515.11 1022.17 1516.63 1015.58 1518.33 1008 1528.13 1012.39 1537.6 1016.71 1548.6 1021.67Z" fill-rule="evenodd"/><path d="M924.001 1414.44C904.979 1441.27 886.019 1468.17 866.998 1495 866.686 1494.88 866.312 1494.75 866 1494.69 866.437 1491.88 866.936 1489.07 867.309 1486.26 868.495 1477.59 869.742 1468.85 870.864 1460.12 871.863 1452.32 875.542 1446.08 881.966 1441.65 895.686 1432.35 909.532 1423.17 923.314 1414 923.564 1414.12 923.751 1414.31 924.001 1414.44Z" fill-rule="evenodd"/><path d="M998.062 1289.26C1000.74 1279.33 1003.24 1269.35 1006.1 1259.48 1006.54 1258.06 1008.29 1256.57 1009.78 1255.95 1029.92 1247.89 1050.12 1239.95 1071 1233 1047 1251.98 1023.06 1271.02 999.06 1290 998.686 1289.75 998.374 1289.5 998 1289.26Z" fill-rule="evenodd"/><path d="M940 1141.87C960.423 1135.66 980.784 1129.38 1001.27 1123.29 1003.14 1122.73 1006.08 1122.98 1007.52 1124.11 1014.57 1129.88 1021.26 1136.1 1029 1143L940.25 1143C940.25 1142.62 940.125 1142.25 940.062 1141.87Z" fill-rule="evenodd"/><path d="M876 1509C886.561 1497.11 891.212 1480.91 906.048 1472.15 921.638 1462.96 936.536 1452.51 952 1443 928.49 1467.02 905.042 1491.11 876 1509Z" fill-rule="evenodd"/><path d="M818.756 1617C815.829 1613.14 811.947 1609.66 810.293 1605.36 808.447 1600.51 808.066 1594.97 808.002 1589.68 807.875 1582.59 814.492 1582.46 819.202 1580.66 823.719 1578.91 828.428 1577.48 833.073 1576.05 833.71 1575.86 834.6 1576.24 836.001 1576.49 830.974 1589.43 826.01 1602 821.11 1614.64 820.283 1615.38 819.52 1616.19 818.693 1616.94Z" fill-rule="evenodd"/><path d="M842 1263.1C833.405 1269.86 824.873 1276.67 816.09 1283.18 814.773 1284.16 811.636 1284.29 810.256 1283.43 804.484 1279.93 799.026 1275.87 792 1271.02 809.503 1267.83 825.5 1264.95 841.435 1262 841.624 1262.37 841.812 1262.74 842 1263.1Z" fill-rule="evenodd"/><path d="M844 1555.5C845.407 1548.3 846.749 1541.11 848.347 1533.92 849.626 1528.24 851.352 1522.62 852.758 1516.94 855.571 1505.46 858.512 1503.25 872 1503 863.37 1520.86 854.867 1538.46 846.429 1556 845.598 1555.81 844.831 1555.69 844 1555.5Z" fill-rule="evenodd"/><path d="M1140 1095C1159.8 1095.84 1178.27 1096.67 1196.69 1097.45 1196.81 1097.75 1196.87 1098.11 1197 1098.41 1185.88 1101.64 1174.82 1105.34 1163.5 1107.86 1160.36 1108.57 1156.09 1106.48 1152.95 1104.69 1148.67 1102.23 1145.09 1098.89 1140 1095Z" fill-rule="evenodd"/><path d="M997 1331.44C1002.04 1317.5 1007.08 1303.57 1012.68 1288 1016.52 1292.83 1019.86 1296.85 1022.88 1301.12 1023.32 1301.75 1022.44 1303.82 1021.62 1304.76 1013.75 1313.92 1005.69 1322.9 997.756 1332 997.504 1331.81 997.252 1331.62 997 1331.44Z" fill-rule="evenodd"/><path d="M1233 1073.41C1219.21 1079.42 1207.1 1084.68 1195 1090 1194.69 1089.75 1194.31 1089.51 1194 1089.2 1198.95 1082.02 1203.78 1074.71 1209.05 1067.72 1209.74 1066.85 1212.43 1066.85 1214 1067.28 1219.77 1068.96 1225.48 1070.94 1233 1073.41Z" fill-rule="evenodd"/><path d="M960 1200.93C965.717 1194.35 971.434 1187.83 977.086 1181.25 979.335 1178.62 981.647 1178.18 984.41 1180.56 988.071 1183.63 991.861 1186.58 997 1190.78 983.639 1194.92 972.076 1198.43 960.514 1202 960.321 1201.69 960.193 1201.31 960 1201Z" fill-rule="evenodd"/><path d="M841.063 1422.65C855.415 1418.62 869.83 1414.53 886 1410 880.986 1416.42 877.163 1421.51 873.089 1426.36 872.462 1427.11 870.457 1427.05 869.141 1426.92 859.74 1425.92 850.402 1424.78 841 1423.65 841 1423.34 841 1422.96 841 1422.65Z" fill-rule="evenodd"/><path d="M1002.94 1411.27C990.784 1420.89 979.319 1429.88 967.729 1439 965.536 1427.82 968.105 1422.82 977.941 1419.07 985.271 1416.33 992.663 1413.7 1000.06 1411.08 1000.56 1410.89 1001.25 1411.08 1003 1411.2Z" fill-rule="evenodd"/><path d="M906 1407.18C907.166 1402.53 908.147 1397.87 909.496 1393.28 909.925 1391.96 911.213 1390.45 912.501 1389.88 922.007 1385.73 931.636 1381.83 942 1379 930.409 1388.69 918.818 1398.31 907.166 1408 906.797 1407.75 906.368 1407.5 906 1407.18Z" fill-rule="evenodd"/><path d="M718.866 1172C726.766 1180.85 734.665 1189.71 743 1199 735.288 1197.13 727.637 1195.45 720.11 1193.39 719.115 1193.14 718.182 1191.02 718.057 1189.65 717.498 1184.28 717.311 1178.86 717 1173.5 717.622 1173 718.306 1172.5 718.928 1172Z" fill-rule="evenodd"/><path d="M1252.26 951C1254.17 956.217 1255.97 961.434 1258 966.524 1259.62 970.659 1261 974.985 1263.27 978.676 1266.51 984.02 1265.13 986.692 1259.74 988.092 1258.12 988.537 1256.57 989.237 1254.41 990 1253.21 976.767 1252.14 964.17 1251 951.509 1251.42 951.318 1251.84 951.127 1252.26 951Z" fill-rule="evenodd"/><path d="M1152.94 872.889C1143.01 876.065 1133.27 880.384 1123.09 881.909 1117.75 882.671 1111.72 878.479 1106 876.51 1106.13 875.811 1106.25 875.049 1106.44 874.35L1152.75 872C1152.75 872 1152.94 872.572 1153 872.889Z" fill-rule="evenodd"/><path d="M778 1378.33C789.646 1372.26 801.229 1366.19 813.001 1360 812.374 1369.81 808.492 1374.22 799.476 1375.63 792.401 1376.73 785.263 1377.84 778.188 1379 778.125 1378.76 778.062 1378.57 778 1378.33Z" fill-rule="evenodd"/><path d="M1065.37 967C1061.14 957.898 1062.93 950.042 1067.94 943.247 1069.28 941.439 1074.61 942.436 1080 942 1074.55 951.289 1070.18 958.833 1065.37 967Z" fill-rule="evenodd"/><path d="M1540 973.061C1538.17 982.761 1536.82 990.57 1535.17 998.257 1534.99 999.112 1532.67 1000.21 1531.57 999.965 1530.53 999.722 1528.88 997.891 1529.01 996.915 1529.98 989.778 1531.14 982.64 1532.85 975.685 1533.16 974.587 1536.58 974.22 1540 973Z" fill-rule="evenodd"/><path d="M1537 1010.02C1538.92 1001.6 1540.43 994.312 1542.29 987.154 1542.52 986.204 1544.44 985.697 1545.6 985 1546.06 986.14 1547.11 987.407 1546.99 988.421 1546 995.579 1544.9 1002.8 1543.45 1009.9 1543.16 1011.23 1541.18 1013 1539.96 1013 1538.86 1013 1537.75 1010.85 1537 1010.02Z" fill-rule="evenodd"/><path d="M792 1520C796.413 1509.44 800.515 1499.51 804.679 1489.58 805.052 1488.76 805.736 1488.07 806.481 1487 808.719 1501.58 803.685 1513.21 792 1520Z" fill-rule="evenodd"/><path d="M977.036 1339C975.51 1338.82 975.327 1338.88 975.144 1338.75 964.285 1331.74 964.285 1329.22 975.144 1323.14 976.669 1322.27 978.194 1321.54 981.001 1320 979.537 1327.01 978.256 1332.97 977.036 1339Z" fill-rule="evenodd"/><path d="M948 940.628C956.64 939.814 965.28 939.204 973.92 938.12 979.785 937.374 981.677 940.086 980.794 947.001 969.884 945.103 959.1 943.204 948.315 941.306 948.189 941.103 948.127 940.831 948 940.628Z" fill-rule="evenodd"/><path d="M846 961.244C841.166 963.304 837.839 964.553 834.637 966.051 827.795 969.173 827.481 969.048 825.158 961.931 824.718 960.62 824.342 959.308 824.028 957.935 823.902 957.435 824.216 956.81 824.593 955 831.31 956.936 837.839 958.871 845.937 961.244Z" fill-rule="evenodd"/><path d="M673 1522.56C678.54 1519.14 683.633 1515.92 690.001 1512 687.708 1519.84 685.862 1526.29 683.633 1534 679.749 1529.83 676.629 1526.48 673 1522.56Z" fill-rule="evenodd"/><path d="M815 1440.62C813.382 1446.44 811.763 1452.19 809.895 1459 805.973 1455.41 802.86 1452.5 799 1449.04 804.292 1445.76 808.961 1442.91 813.631 1440 814.067 1440.25 814.565 1440.43 815 1440.68Z" fill-rule="evenodd"/><path d="M1141.09 1059C1147.03 1064.89 1152.02 1069.87 1157 1074.8 1156.81 1075.22 1156.55 1075.58 1156.36 1076 1151.57 1074.92 1146.26 1074.68 1142.11 1072.52 1136.29 1069.51 1140.25 1064.71 1141.15 1059Z" fill-rule="evenodd"/><path d="M850 1455C851.926 1448.06 853.321 1442.94 855.247 1436 859.563 1441.25 862.95 1445.38 867.001 1450.31 861.157 1451.94 856.375 1453.25 850 1455Z" fill-rule="evenodd"/><path d="M857 1375.06C853.801 1380.18 851.242 1384.31 848.299 1389 844.844 1386.23 841.966 1384.13 839.342 1381.72 837.103 1379.63 837.743 1377.53 840.686 1376.97 845.612 1376.11 850.667 1375.74 857 1375Z" fill-rule="evenodd"/><path d="M1231.75 1029.19C1229.51 1029.87 1227.26 1030.55 1225.02 1031.23 1217.37 1033.59 1212.7 1030.51 1211 1022 1218.17 1023.98 1225.08 1025.9 1232 1027.83 1231.94 1028.26 1231.88 1028.69 1231.75 1029.13Z" fill-rule="evenodd"/><path d="M750.034 1543C749.457 1530.66 756.13 1522.07 768 1519 762.033 1526.98 756.515 1534.35 750.034 1543Z" fill-rule="evenodd"/><path d="M748.438 1572 728.438 1572C728.312 1571.66 728.125 1571.32 728 1570.99 733.125 1568.9 738.125 1566.26 743.501 1565.02 745.125 1564.68 747.813 1568.34 750.001 1570.14 749.501 1570.76 748.938 1571.32 748.438 1571.94Z" fill-rule="evenodd"/><path d="M1559 1002.44C1557.43 1007.7 1556.11 1012.13 1554.66 1016.62 1553.53 1020.21 1551.27 1019.12 1549.63 1017.39 1547.37 1014.95 1551.65 1002.76 1554.91 1002.05 1555.79 1001.86 1556.86 1002.24 1559 1002.5Z" fill-rule="evenodd"/><path d="M797 1551C803.7 1566.51 803.634 1572.02 797 1579L797 1551Z" fill-rule="evenodd"/><path d="M1519 993.571C1519.17 991.848 1519.17 989.168 1519.74 986.68 1519.97 985.659 1521.28 984.893 1522.07 984 1522.75 984.957 1524 985.978 1524 986.871 1523.83 991.273 1523.38 995.74 1522.81 1000.14 1522.69 1000.91 1521.39 1001.67 1520.54 1001.99 1520.25 1002.12 1519.23 1000.72 1519.12 999.951 1518.89 998.165 1519.06 996.314 1519.06 993.571Z" fill-rule="evenodd"/><path d="M1033.16 937C1036.08 946.393 1030.84 951.186 1025.59 957 1022.94 948.118 1029.84 943.965 1033.16 937Z" fill-rule="evenodd"/><path d="M1020 896C1016.92 904.437 1014.22 905.306 999 902.7 1006.39 900.342 1012.74 898.295 1020 896Z" fill-rule="evenodd"/><path d="M1061.37 1190C1060.05 1180.52 1061.79 1179.52 1074 1182.47 1068.97 1185.43 1065.38 1187.58 1061.37 1190Z" fill-rule="evenodd"/><path d="M884.001 1236.47C878.205 1238.21 873.733 1239.63 869.197 1241 868.819 1240.5 868.378 1240.01 868 1239.45 870.772 1236.65 873.543 1233.86 876.378 1231 879.339 1233.11 881.103 1234.42 884.001 1236.47Z" fill-rule="evenodd"/><path d="M1194.04 952.001C1193.62 943.488 1196.49 942.08 1206 946.302 1201.52 948.447 1197.93 950.124 1194.04 952.001Z" fill-rule="evenodd"/><path d="M870 1363C874.564 1355.68 879.231 1354.1 884.001 1358.26 879.19 1359.88 874.934 1361.31 870 1363Z" fill-rule="evenodd"/><path d="M988 954.825C997.703 951.451 999.881 952.342 1001 961 996.521 958.899 992.789 957.117 988 954.825Z" fill-rule="evenodd"/><path d="M690.001 1600.83C685.312 1602.22 680.887 1603.55 676 1605 680.887 1595.64 683.595 1594.82 690.001 1600.83Z" fill-rule="evenodd"/><path d="M1106 1074C1101.94 1072.01 1098.53 1070.39 1095 1068.64 1101.88 1063.97 1105.18 1065.34 1106 1074Z" fill-rule="evenodd"/><path d="M692.773 1431C694.516 1432.76 695.947 1434.18 698 1436.27 693.334 1437.82 689.352 1439.18 684 1441 687.485 1437.01 689.849 1434.31 692.773 1431Z" fill-rule="evenodd"/><path d="M773 1585C777.005 1575.78 779.469 1574.97 786.001 1580.32 781.688 1581.88 777.991 1583.17 773 1585Z" fill-rule="evenodd"/><path d="M1010 1182C1006.25 1180.15 1002.75 1178.42 999 1176.63 1005.94 1171.87 1009.51 1173.52 1010 1182Z" fill-rule="evenodd"/><text font-family="Nasalization Rg,Nasalization Rg_MSFontService,sans-serif" font-weight="700" font-size="440" transform="matrix(1 0 0 1 1596.97 1199)">ASC</text><text font-family="Nasalization Rg,Nasalization Rg_MSFontService,sans-serif" font-weight="400" font-size="440" transform="matrix(1 0 0 1 2585.77 1199)">E</text><text font-family="Nasalization Rg,Nasalization Rg_MSFontService,sans-serif" font-weight="700" font-size="440" transform="matrix(1 0 0 1 2890.57 1199)">ND</text><path d="M1327.01 983.521 1332.53 939.539C1331.84 939.413 1331.22 939.224 1330.53 939.099 1329.84 941.922 1329.08 944.746 1328.39 947.632 1327.64 950.769 1326.89 953.907 1326.2 957.043 1324.75 963.695 1324.19 964.259 1317.79 961.561 1310.82 958.613 1304.17 955.036 1296.51 951.397 1298.02 954.032 1299.27 956.165 1301.35 959.679 1293.25 958.549 1286.03 957.671 1278.94 956.416 1278.06 956.291 1277.37 954.283 1276.93 953.028 1276.56 951.899 1276.93 950.581 1276.74 949.452 1275.18 942.299 1278.38 934.393 1270.09 928.307 1264.44 924.229 1261.68 916.323 1257.35 910.3 1254.09 905.72 1250.32 901.453 1247.06 896.81 1245.49 894.614 1244.68 891.853 1243.23 888.779 1222.9 888.779 1201.5 888.653 1180.16 888.779 1160.77 888.967 1141.44 889.72 1122.05 889.783 1115.34 889.783 1110.63 892.167 1106.93 897.751 1102.91 903.774 1098.33 909.484 1093.56 914.88 1092.43 916.198 1088.98 916.7 1087.35 916.01 1083.77 914.378 1078.62 913.876 1078.94 907.978 1079.06 906.222 1079.31 904.527 1079.69 900.7 1068.27 906.347 1058.23 911.241 1048.12 916.198 1042.6 905.343 1054.71 903.147 1057.6 896.496 1057.29 895.994 1056.97 895.43 1056.66 894.928 1049.07 899.57 1041.41 904.214 1033 909.296 1037.02 899.006 1040.91 889.093 1044.86 879.179 1045.36 879.304 1045.8 879.43 1046.3 879.555 1046.12 882.317 1045.86 885.077 1045.68 887.837 1046.18 887.963 1046.62 888.088 1047.12 888.214 1048.06 885.077 1049.25 882.002 1049.94 878.803 1051.89 870.395 1060.49 864.434 1068.77 865.877 1069.78 866.066 1071.03 866.254 1071.78 865.752 1082.14 859.666 1093.69 862.552 1104.67 861.422 1105.42 861.36 1106.3 862.426 1106.61 862.677 1109.44 860.481 1112.01 858.537 1114.52 856.529 1115.02 856.842 1115.52 857.093 1116.09 857.407 1115.65 860.795 1115.15 864.183 1114.58 868.262 1124.81 859.603 1137.36 860.419 1148.78 857.533 1173.76 851.133 1199.05 845.8 1224.22 840.09 1225.91 839.714 1227.73 839.714 1229.93 839.463 1230.31 842.725 1227.86 847.996 1234.57 846.239 1237.96 845.36 1239.4 843.792 1238.21 840.216 1237.46 837.957 1237.08 835.572 1236.46 833 1242.92 837.204 1249.07 841.094 1255.03 845.235 1255.78 845.737 1255.91 847.305 1256.22 848.372 1258.17 855.588 1260.05 862.74 1262 869.956 1262.31 871.148 1262.94 872.278 1263.44 873.407 1263.94 873.344 1264.51 873.218 1265.01 873.156 1264.44 864.183 1263.94 855.148 1263.38 846.176 1285.28 875.163 1295.01 909.986 1312.52 941.609 1303.29 939.162 1294.69 936.84 1286.1 934.582 1285.78 935.335 1285.47 936.024 1285.15 936.778 1290.61 939.288 1295.89 942.613 1301.6 944.181 1309.94 946.503 1317.28 949.389 1320.74 958.111 1320.93 958.549 1321.74 958.675 1323.5 959.616 1322.37 954.785 1321.74 950.769 1320.49 947.068 1317.16 937.405 1313.96 927.68 1309.94 918.331 1305.68 908.543 1300.72 899.069 1295.57 889.657 1288.29 876.293 1280.57 863.117 1273.23 850.129 1283.77 846.49 1293.56 849.564 1301.09 859.415 1310.7 871.901 1320.61 884.136 1330.4 896.496 1331.66 898.065 1333.48 899.57 1333.92 901.391 1335.74 909.107 1341.89 910.488 1348.16 912.182 1355.94 914.253 1363.6 916.763 1371.38 918.644 1376.4 919.899 1378.85 922.848 1379.66 927.742 1381.61 938.66 1383.43 949.578 1385.88 960.369 1386.76 964.197 1386.07 970.973 1392.59 969.843 1398.87 968.714 1394.29 962.691 1395.35 959.051 1395.67 957.985 1395.35 956.604 1394.98 955.475 1391.09 943.617 1394.54 933.766 1402.82 924.982 1404.89 922.786 1406.96 920.401 1408.28 917.766 1413.24 908.041 1422.09 906.096 1431.75 903.461 1444.99 899.885 1454.47 902.771 1462.82 913.311 1467.52 919.272 1473.61 924.166 1479.2 929.436 1486.48 936.275 1489.74 944.495 1488.86 954.471 1488.11 963.129 1487.98 971.851 1481.27 978.753 1480.07 980.008 1480.07 982.957 1480.33 984.965 1481.58 994.376 1478.88 1002.47 1472.92 1009.69 1467.15 1016.71 1461.37 1023.74 1455.91 1031.02 1453.09 1034.72 1450.83 1035.47 1447.19 1032.02 1443.24 1028.32 1438.59 1025.31 1434.58 1021.67 1429.93 1017.4 1425.04 1016.15 1419.08 1018.47 1416.13 1019.6 1412.86 1020.04 1408.72 1019.66 1411.42 1017.9 1414.12 1016.15 1416.88 1014.39 1416.38 1013.76 1415.94 1013.07 1415.44 1012.45 1405.46 1014.83 1395.42 1017.28 1384.12 1019.98 1387.7 1014.01 1390.71 1009.06 1394.66 1002.6 1387.45 1005.8 1383.74 1009.75 1380.79 1015.02 1375.84 1023.99 1370.57 1032.84 1365.04 1041.5 1364.04 1043.13 1361.15 1044.26 1359.02 1044.38 1352.37 1044.76 1345.71 1044.7 1339.06 1044.44 1333.98 1044.26 1331.15 1046.26 1330.09 1051.28 1329.33 1054.74 1328.14 1058.06 1327.14 1061.45 1327.7 1061.7 1328.27 1061.95 1328.83 1062.14 1330.02 1059.63 1331.78 1057.24 1332.35 1054.61 1333.48 1049.34 1336.74 1047.83 1341.57 1047.96 1348.04 1048.08 1354.56 1048.59 1360.96 1047.96 1364.23 1047.65 1367.99 1045.95 1370.25 1043.63 1375.65 1038.17 1380.36 1032.08 1385.19 1026.12 1388.64 1021.86 1392.53 1020.54 1397.99 1022.55 1402.07 1024.05 1406.59 1024.74 1410.92 1025.12 1415.94 1025.56 1419.14 1028.13 1421.27 1032.34 1425.04 1039.68 1428.68 1047.08 1432.57 1054.92 1431.56 1056.05 1430.31 1057.5 1428.3 1059.75 1432.69 1061.32 1433.26 1067.28 1438.84 1067.28 1439.16 1067.28 1439.53 1067.72 1439.79 1067.97 1450.7 1081.78 1466.96 1091.82 1468.97 1111.71 1470.47 1126.51 1473.05 1141.26 1475.05 1156 1475.37 1158.2 1475.31 1160.4 1475.49 1164.1 1471.23 1160.9 1467.9 1158.39 1464.51 1155.94 1464.01 1156.19 1463.44 1156.38 1462.94 1156.63 1463.82 1160.9 1464.76 1165.1 1465.7 1169.62 1453.34 1158.32 1441.1 1147.16 1427.74 1134.92 1432.69 1136.24 1436.21 1137.18 1440.48 1138.31 1435.2 1127.71 1418.45 1127.08 1421.33 1111.58L1419.83 1111.58C1418.01 1115.35 1416.19 1119.11 1414.12 1123.38 1403.32 1110.2 1392.66 1097.34 1382.11 1084.35 1377.15 1078.2 1372.01 1077.39 1366.17 1082.72 1361.9 1086.61 1358.33 1091.19 1353.43 1096.58 1352.49 1092.57 1351.99 1090.5 1351.24 1087.3 1337.74 1097.28 1324.75 1106.94 1311.32 1116.91 1309.38 1112.33 1307.24 1112.9 1303.54 1115.41 1297.58 1119.49 1290.86 1122.37 1284.46 1125.82 1282.77 1126.76 1281.14 1127.83 1279.51 1128.84 1279.82 1129.46 1280.07 1130.03 1280.39 1130.65 1286.72 1127.39 1293.06 1124.19 1299.4 1120.93 1299.65 1121.24 1299.84 1121.56 1300.09 1121.81 1288.04 1132.35 1275.93 1142.95 1263.06 1154.25 1261.31 1149.23 1259.86 1145.21 1258.11 1140.32 1254.22 1142.7 1250.7 1144.83 1247.31 1146.91 1270.47 1165.35 1283.21 1191.45 1301.72 1212.66 1302.1 1213.04 1302.16 1213.73 1302.54 1214.79 1294.69 1215.17 1287.04 1215.55 1279.44 1215.86 1279.44 1216.68 1279.44 1217.55 1279.44 1218.37 1281.01 1218.62 1282.64 1219.25 1284.15 1219.12 1291.81 1218.62 1299.4 1217.55 1307.06 1217.49 1310.01 1217.49 1314.4 1218.62 1315.84 1220.75 1330.53 1242.65 1344.71 1264.86 1358.27 1287.7 1351.61 1283.75 1345.15 1279.36 1338.25 1275.84 1331.28 1272.33 1323.87 1269.82 1313.96 1272.14 1320.11 1277.47 1325.26 1281.93 1330.4 1286.38 1330.21 1286.82 1330.02 1287.2 1329.84 1287.64 1311.95 1284 1294.07 1280.36 1276.18 1276.66 1295.13 1286.01 1316.28 1290.46 1334.54 1304.33 1324.19 1305.02 1315.09 1305.65 1305.99 1306.21 1305.93 1306.59 1305.8 1307.03 1305.74 1307.4 1307.62 1307.84 1309.5 1308.66 1311.32 1308.59 1322.18 1308.34 1333.1 1307.84 1343.96 1307.59 1348.91 1307.47 1349.35 1305.08 1347.41 1301.32 1344.21 1294.92 1340.94 1288.52 1338.37 1281.3 1347.72 1287.14 1357.07 1292.78 1366.24 1298.93 1367.43 1299.75 1367.99 1303.14 1367.3 1304.64 1362.53 1315.5 1357.32 1326.1 1351.8 1337.77 1350.92 1334.63 1350.23 1332.31 1349.1 1328.36 1347.91 1331.56 1347.16 1333.13 1346.78 1334.76 1344.52 1344.04 1344.14 1344.67 1334.92 1345.17 1269.65 1348.94 1204.32 1352.64 1139.06 1356.34 1138.12 1356.34 1137.11 1356.34 1135.86 1355.53 1140.5 1353.39 1145.15 1351.26 1149.79 1349.06 1149.73 1348.37 1149.6 1347.68 1149.54 1347.06 1143.01 1345.61 1136.48 1344.17 1129.9 1342.73 1129.71 1343.17 1129.52 1343.61 1129.27 1344.04 1130.59 1345.68 1131.84 1347.31 1133.47 1349.32 1126.44 1354.02 1119.6 1358.54 1112.32 1363.37 1119.42 1371.4 1118.66 1380.62 1118.85 1389.72 1119.23 1406.04 1123.06 1421.28 1133.35 1434.27 1125.63 1440.92 1114.21 1440.42 1106.74 1433.64 1100.34 1427.81 1093.62 1422.29 1087.41 1416.26 1085.09 1414 1083.14 1410.87 1082.26 1407.79 1077.43 1391.17 1073.16 1374.35 1068.21 1357.72 1066.7 1352.58 1064.25 1347.37 1060.93 1343.23 1054.65 1335.45 1054.59 1326.04 1052.77 1317.07 1052.08 1313.61 1059.67 1307.28 1065.19 1307.53 1072.79 1307.9 1080.82 1308.28 1087.66 1311.1 1093.75 1313.68 1099.08 1315.12 1105.42 1313.68 1110 1312.67 1114.77 1312.23 1119.48 1310.1 1117.78 1309.54 1116.09 1308.97 1112.95 1307.97 1126.44 1305.21 1138.68 1302.7 1150.92 1300.25 1163.53 1297.74 1176.27 1295.73 1188.76 1292.72 1195.22 1291.15 1198.8 1292.6 1201.75 1298.49 1204.76 1304.45 1205.89 1304.52 1211.67 1303.14 1210.41 1301 1207.84 1298.62 1208.22 1296.74 1208.59 1294.6 1211.48 1292.91 1213.42 1291.15 1218.32 1286.64 1223.03 1281.93 1228.23 1277.79 1229.93 1276.47 1233.07 1275.97 1235.2 1276.53 1240.85 1277.98 1246.25 1280.23 1251.77 1282.18 1254.15 1283 1256.91 1286.13 1258.73 1281.74 1260.3 1277.91 1259.24 1274.21 1255.28 1272.64 1251.2 1271.01 1246.81 1269.57 1242.48 1269.32 1233.07 1268.82 1225.41 1265.05 1218.7 1258.78 1204.89 1246.04 1191.02 1233.43 1177.21 1220.63 1169.81 1213.73 1167.24 1202.12 1171.38 1192.27 1175.21 1183.17 1179.72 1174.32 1183.87 1165.35 1184.74 1163.47 1185.43 1161.46 1186.25 1159.39 1185.06 1159.2 1184.43 1158.95 1184.37 1159.08 1177.53 1168.55 1170.56 1177.9 1164.1 1187.63 1160.58 1192.9 1160.39 1198.98 1162.78 1205.07 1163.6 1207.08 1164.16 1209.21 1165.35 1212.85 1160.9 1209.21 1157.57 1206.57 1154.31 1203.88 1141.57 1193.34 1128.89 1182.67 1116.03 1172.25 1112.57 1169.49 1112.45 1167.42 1114.77 1163.78 1123.12 1150.42 1131.21 1136.93 1139.12 1123.31 1141.76 1118.73 1145.08 1116.85 1150.35 1116.98 1166.29 1117.48 1182.23 1117.73 1198.17 1117.85 1200.62 1117.85 1203.07 1116.73 1205.45 1116.04 1206.58 1115.72 1208.15 1114.53 1208.72 1114.91 1217.44 1120.8 1217.31 1111.08 1221.33 1108.69 1221.21 1108.07 1221.02 1107.44 1220.89 1106.75 1199.56 1108.95 1178.28 1111.08 1156.94 1113.27 1156.69 1112.65 1156.5 1112.02 1156.25 1111.39 1181.23 1097.59 1206.14 1083.72 1230.93 1070.04 1227.42 1069.29 1222.84 1068.29 1216.81 1067.03 1225.28 1062.7 1232.75 1059.38 1239.72 1055.11 1252.08 1047.58 1264.7 1043.19 1279.13 1048.65 1281.26 1049.47 1283.77 1049.28 1286.6 1048.46 1285.4 1047.77 1284.28 1046.89 1283.02 1046.39 1277.37 1044.26 1271.66 1042.25 1266.01 1040.18 1259.41 1037.75 1254.05 1039.24 1249.95 1044.63 1247.19 1037.79 1252.14 1019.41 1258.04 1016.15 1259.3 1015.46 1261.87 1016.27 1263.5 1017.03 1276.49 1023.55 1289.36 1030.33 1302.22 1036.98 1303.98 1037.92 1305.8 1038.74 1308.62 1038.61 1307.31 1037.42 1306.18 1035.97 1304.73 1034.97 1290.17 1024.81 1275.68 1014.58 1260.93 1004.6 1256.04 1001.34 1255.47 998.078 1258.36 992.996 1262.5 985.654 1265.95 977.874 1269.53 970.22 1271.6 965.765 1274.61 964.197 1279.69 964.824 1291.49 966.142 1303.42 967.208 1315.28 967.773 1320.49 968.024 1323.06 969.969 1323.5 975.114 1323.75 977.874 1324.44 980.572 1324.94 983.333 1325.63 983.396 1326.26 983.521 1326.95 983.584Z" fill="#FFC000" fill-rule="evenodd"/><path d="M906 1440.99C908.628 1436.78 911.193 1432.5 913.945 1428.35 924.643 1412.19 934.965 1395.78 946.287 1380.12 958.299 1363.45 971.123 1347.35 984.01 1331.38 986.325 1328.55 990.641 1326.78 994.332 1325.78 1006.72 1322.32 1019.29 1319.49 1031.74 1316.34 1034.24 1315.72 1036.62 1314.65 1038.87 1313.2L1016.6 1313.2C1026.24 1298.36 1039.5 1293.01 1057.64 1296.03 1063.08 1296.91 1068.65 1296.91 1074.16 1297.29 1074.16 1296.72 1074.28 1296.09 1074.34 1295.53 1061.14 1293.45 1047.94 1291.31 1033.68 1289.05 1043.13 1277.35 1051.95 1266.41 1060.89 1255.53 1078.16 1234.46 1095.61 1213.52 1112.75 1192.32 1115.76 1188.61 1118.01 1187.92 1122.2 1190.69 1136.46 1200.12 1151.04 1209.12 1165.49 1218.24 1171.06 1221.76 1171.12 1222.26 1166.3 1227.04 1153.61 1239.43 1140.78 1251.76 1128.08 1264.08 1126.58 1265.53 1125.2 1267.1 1123.76 1268.67 1124.2 1269.18 1124.7 1269.68 1125.14 1270.18 1140.34 1256.79 1155.54 1243.39 1170.81 1230 1178.44 1241.13 1177.75 1245.78 1168.12 1252.64 1145.97 1268.42 1123.89 1284.27 1101.74 1300.12 1099.93 1301.38 1098.12 1302.57 1096.3 1303.77 1088.86 1296.03 1088.29 1296.09 1077.91 1299.93 1068.53 1303.39 1058.95 1306.41 1049.45 1309.62 1047.38 1310.31 1045.38 1311.06 1043.38 1311.75 1047.01 1320.75 1050.45 1329.3 1053.95 1337.79 1055.51 1341.63 1055.26 1344.58 1051.45 1347.16 1004.34 1378.17 957.298 1409.3 910.254 1440.3 909.253 1440.93 908.19 1441.43 907.126 1442L906 1440.99Z" fill="#FFC000" fill-rule="evenodd"/><path d="M1479.47 1120C1480.61 1122.69 1481.68 1125.38 1482.82 1128.07 1483.26 1128.07 1483.76 1127.94 1484.21 1127.94 1484.02 1126.07 1484.21 1124 1483.45 1122.38 1480.92 1116.75 1482.69 1112.75 1486.92 1108.51 1499.43 1095.94 1504.42 1079.32 1510.23 1063.32 1513.2 1055.26 1515.47 1046.88 1517.75 1038.57 1518.88 1034.39 1521.03 1032.45 1525.58 1033.14 1530.38 1033.82 1535.37 1033.7 1540.04 1034.76 1541.87 1035.2 1543.2 1037.76 1544.84 1039.32 1545.73 1040.14 1546.74 1040.82 1548 1041.76 1543.14 1054.63 1538.21 1067.95 1533.16 1081.19 1524.19 1104.63 1515.22 1128.07 1506.25 1151.5 1504.29 1156.63 1502.33 1161.63 1495.89 1163.13 1494.94 1163.38 1494.69 1166.56 1494.19 1168.44 1493.68 1170.56 1494 1173.87 1492.73 1174.69 1489.77 1176.5 1486.1 1177.25 1482.63 1178 1482.19 1178.06 1480.73 1175.56 1480.54 1174.12 1478.59 1160.19 1476.44 1146.31 1475.05 1132.32 1474.67 1128.32 1476.63 1124.07 1477.51 1119.94 1478.14 1119.94 1478.77 1120 1479.41 1120.07Z" fill="#FFC000" fill-rule="evenodd"/><path d="M868 1441C858.602 1454.48 850.207 1466.57 841.811 1478.59 842.187 1479.1 842.5 1479.54 842.876 1480.04 849.267 1475.82 855.657 1471.6 862.111 1467.32 862.487 1467.57 862.863 1467.83 863.239 1468.14 858.352 1483.44 853.464 1498.74 848.64 1514.05 846.886 1519.65 845.445 1525.32 843.503 1530.8 842.938 1532.37 841.247 1534.7 839.994 1534.76 832.601 1535.14 825.208 1534.95 817 1534.95 818.065 1525.51 819.068 1516.94 820.07 1508.38 820.321 1505.99 820.321 1503.47 821.072 1501.2 822.075 1498.24 823.015 1494.08 825.208 1492.95 831.661 1489.61 832.601 1484.7 831.849 1478.34 831.16 1472.3 830.846 1466.19 831.035 1460.14 831.097 1458.07 832.726 1454.98 834.481 1454.22 845.007 1449.75 855.721 1445.79 868 1441Z" fill="#FFC000" fill-rule="evenodd"/><path d="M1556.65 997.729C1553.56 999.923 1551.89 1001.18 1550.15 1002.3 1548.36 1003.43 1546.5 1004.37 1544.65 1005.38 1544.77 1005.88 1544.96 1006.32 1545.08 1006.82 1549.29 1005.94 1553.49 1005 1559 1003.87 1554.92 1013.02 1551.27 1021.17 1547.55 1029.26 1547.18 1030.08 1546.38 1030.95 1545.57 1031.33 1534.68 1036.41 1518.66 1029.39 1514.52 1017.41 1516.99 1016.28 1519.53 1015.09 1522.06 1013.9 1521.94 1013.53 1521.82 1013.15 1521.75 1012.77 1519.53 1013.02 1517.3 1013.34 1515.01 1013.59 1510.37 1005.5 1511.05 997.102 1517.36 986.006 1522.13 991.523 1514.02 1000.11 1522.37 1004.94 1523.86 998.168 1525.34 991.585 1527.01 984 1536.6 988.389 1545.88 992.714 1556.65 997.666Z" fill="#FFC000" fill-rule="evenodd"/><path d="M933.001 1389.44C913.651 1416.61 894.365 1443.84 875.015 1471 874.698 1470.87 874.317 1470.75 874 1470.68 874.444 1467.84 874.952 1465 875.332 1462.16 876.538 1453.37 877.807 1444.53 878.948 1435.69 879.964 1427.79 883.706 1421.47 890.241 1416.99 904.198 1407.57 918.282 1398.29 932.303 1389 932.556 1389.13 932.747 1389.32 933.001 1389.44Z" fill="#FFC000" fill-rule="evenodd"/><path d="M1006.06 1265.24C1008.78 1255.15 1011.31 1244.98 1014.22 1234.95 1014.66 1233.5 1016.43 1231.98 1017.94 1231.35 1038.36 1223.15 1058.83 1215.07 1080 1208 1055.67 1227.31 1031.4 1246.69 1007.07 1266 1006.7 1265.75 1006.38 1265.5 1006 1265.24Z" fill="#FFC000" fill-rule="evenodd"/><path d="M948 1116.87C968.653 1110.66 989.242 1104.38 1009.96 1098.29 1011.85 1097.73 1014.82 1097.98 1016.27 1099.11 1023.41 1104.88 1030.17 1111.1 1038 1118L948.253 1118C948.253 1117.62 948.126 1117.25 948.063 1116.87Z" fill="#FFC000" fill-rule="evenodd"/><path d="M885 1484C895.422 1472.11 900.012 1455.91 914.653 1447.15 930.038 1437.96 944.74 1427.51 960 1418 936.799 1442.02 913.661 1466.11 885 1484Z" fill="#FFC000" fill-rule="evenodd"/><path d="M826.756 1592C823.828 1588.14 819.947 1584.66 818.293 1580.36 816.447 1575.51 816.066 1569.97 816.002 1564.68 815.874 1557.59 822.492 1557.46 827.201 1555.66 831.719 1553.91 836.428 1552.48 841.073 1551.05 841.71 1550.86 842.6 1551.24 844.001 1551.49 838.973 1564.43 834.01 1577 829.11 1589.64 828.283 1590.38 827.519 1591.19 826.692 1591.94Z" fill="#FFC000" fill-rule="evenodd"/><path d="M850 1238.16C841.405 1245.22 832.873 1252.34 824.09 1259.14 822.773 1260.17 819.636 1260.3 818.256 1259.4 812.484 1255.74 807.026 1251.5 800 1246.44 817.503 1243.1 833.5 1240.08 849.436 1237 849.624 1237.38 849.812 1237.77 850 1238.16Z" fill="#FFC000" fill-rule="evenodd"/><path d="M853 1530.51C854.356 1523.45 855.651 1516.39 857.192 1509.33 858.425 1503.76 860.089 1498.25 861.445 1492.68 864.157 1481.41 866.993 1479.25 880 1479 871.678 1496.52 863.479 1513.79 855.342 1531 854.541 1530.81 853.801 1530.69 853 1530.51Z" fill="#FFC000" fill-rule="evenodd"/><path d="M1149 1070C1168.8 1070.9 1187.27 1071.8 1205.69 1072.64 1205.81 1072.96 1205.87 1073.35 1206 1073.67 1194.88 1077.15 1183.82 1081.14 1172.5 1083.84 1169.36 1084.62 1165.09 1082.36 1161.95 1080.43 1157.67 1077.79 1154.09 1074.19 1149 1070Z" fill="#FFC000" fill-rule="evenodd"/><path d="M1005 1307.44C1010.04 1293.5 1015.08 1279.57 1020.68 1264 1024.52 1268.83 1027.86 1272.85 1030.88 1277.12 1031.32 1277.75 1030.44 1279.82 1029.62 1280.76 1021.75 1289.92 1013.69 1298.9 1005.76 1308 1005.5 1307.81 1005.25 1307.62 1005 1307.44Z" fill="#FFC000" fill-rule="evenodd"/><path d="M1242 1048.69C1228.21 1054.96 1216.1 1060.45 1204 1066 1203.69 1065.74 1203.31 1065.48 1203 1065.16 1207.95 1057.67 1212.78 1050.05 1218.05 1042.75 1218.74 1041.84 1221.43 1041.84 1223 1042.3 1228.77 1044.04 1234.48 1046.11 1242 1048.69Z" fill="#FFC000" fill-rule="evenodd"/><path d="M969 1175.93C974.562 1169.35 980.125 1162.83 985.625 1156.25 987.812 1153.62 990.062 1153.18 992.75 1155.56 996.312 1158.63 1000 1161.58 1005 1165.78 992 1169.92 980.75 1173.43 969.5 1177 969.312 1176.69 969.188 1176.31 969 1176Z" fill="#FFC000" fill-rule="evenodd"/><path d="M849.064 1398.65C863.735 1394.62 878.471 1390.53 895.001 1386 889.875 1392.42 885.967 1397.51 881.803 1402.36 881.162 1403.11 879.111 1403.05 877.766 1402.92 868.156 1401.92 858.611 1400.78 849 1399.65 849 1399.34 849 1398.96 849 1398.65Z" fill="#FFC000" fill-rule="evenodd"/><path d="M1010.94 1386.28C998.784 1396.24 987.319 1405.55 975.729 1415 973.536 1403.42 976.105 1398.24 985.941 1394.36 993.271 1391.52 1000.66 1388.8 1008.06 1386.08 1008.56 1385.89 1009.25 1386.08 1011 1386.21Z" fill="#FFC000" fill-rule="evenodd"/><path d="M914 1383.18C915.198 1378.53 916.206 1373.87 917.593 1369.28 918.034 1367.96 919.358 1366.45 920.681 1365.88 930.452 1361.73 940.348 1357.83 951.001 1355 939.088 1364.69 927.174 1374.31 915.198 1384 914.819 1383.75 914.378 1383.5 914 1383.18Z" fill="#FFC000" fill-rule="evenodd"/><path d="M727.866 1147C735.766 1155.85 743.665 1164.71 752.001 1174 744.288 1172.13 736.637 1170.45 729.11 1168.39 728.115 1168.14 727.182 1166.02 727.057 1164.65 726.498 1159.28 726.311 1153.86 726 1148.5 726.622 1148 727.306 1147.5 727.928 1147Z" fill="#FFC000" fill-rule="evenodd"/><path d="M1260.35 927C1262.4 932.083 1264.32 937.167 1266.5 942.126 1268.24 946.155 1269.71 950.37 1272.15 953.966 1275.61 959.173 1274.14 961.776 1268.36 963.141 1266.63 963.574 1264.97 964.256 1262.66 965 1261.37 952.106 1260.22 939.832 1259 927.496 1259.45 927.31 1259.9 927.124 1260.35 927Z" fill="#FFC000" fill-rule="evenodd"/><path d="M1160.94 848.889C1151.22 852.065 1141.69 856.384 1131.73 857.909 1126.5 858.671 1120.6 854.478 1115 852.51 1115.12 851.811 1115.25 851.049 1115.43 850.35L1160.75 848C1160.75 848 1160.94 848.572 1161 848.889Z" fill="#FFC000" fill-rule="evenodd"/><path d="M786 1354.29C797.646 1347.9 809.229 1341.52 821.001 1335 820.374 1345.32 816.492 1349.97 807.476 1351.45 800.401 1352.61 793.263 1353.77 786.188 1355 786.126 1354.74 786.063 1354.55 786 1354.29Z" fill="#FFC000" fill-rule="evenodd"/><path d="M1073.37 942C1069.14 932.898 1070.93 925.042 1075.94 918.247 1077.28 916.439 1082.61 917.437 1088 917 1082.55 926.289 1078.18 933.833 1073.37 942Z" fill="#FFC000" fill-rule="evenodd"/><path d="M1549 948.063C1547 958.123 1545.54 966.221 1543.74 974.193 1543.54 975.079 1541 976.217 1539.8 975.964 1538.67 975.712 1536.87 973.813 1537.01 972.801 1538.07 965.399 1539.34 957.997 1541.2 950.784 1541.54 949.645 1545.27 949.265 1549 948Z" fill="#FFC000" fill-rule="evenodd"/><path d="M1545 986.023C1547.11 977.598 1548.77 970.313 1550.82 963.154 1551.07 962.204 1553.18 961.697 1554.46 961 1554.97 962.141 1556.12 963.408 1555.99 964.421 1554.9 971.58 1553.69 978.801 1552.09 985.896 1551.77 987.226 1549.6 989.001 1548.26 989.001 1547.04 989.001 1545.83 986.846 1545 986.023Z" fill="#FFC000" fill-rule="evenodd"/><path d="M800 1495C804.707 1484.44 809.082 1474.51 813.524 1464.58 813.922 1463.76 814.651 1463.07 815.447 1462 817.833 1476.58 812.464 1488.21 800 1495Z" fill="#FFC000" fill-rule="evenodd"/><path d="M985.752 1315C984.118 1314.81 983.922 1314.87 983.726 1314.74 972.091 1307.36 972.091 1304.71 983.726 1298.3 985.36 1297.39 986.994 1296.62 990.001 1295 988.432 1302.38 987.06 1308.66 985.752 1315Z" fill="#FFC000" fill-rule="evenodd"/><path d="M956 916.336C964.64 915.613 973.28 915.07 981.92 914.106 987.785 913.443 989.677 915.854 988.794 922.001 977.884 920.313 967.099 918.626 956.315 916.939 956.189 916.758 956.126 916.517 956 916.336Z" fill="#FFC000" fill-rule="evenodd"/><path d="M854 936.244C849.166 938.304 845.839 939.553 842.637 941.051 835.795 944.173 835.48 944.048 833.158 936.931 832.718 935.62 832.342 934.308 832.028 932.935 831.902 932.435 832.216 931.81 832.593 930 839.31 931.936 845.839 933.871 853.937 936.244Z" fill="#FFC000" fill-rule="evenodd"/><path d="M682 1498.08C687.54 1494.82 692.633 1491.74 699 1488 696.708 1495.48 694.862 1501.64 692.633 1509 688.749 1505.02 685.629 1501.82 682 1498.08Z" fill="#FFC000" fill-rule="evenodd"/><path d="M824 1415.62C822.28 1421.44 820.56 1427.19 818.576 1434 814.409 1430.41 811.102 1427.5 807 1424.04 812.622 1420.76 817.584 1417.91 822.545 1415 823.008 1415.25 823.537 1415.43 824 1415.68Z" fill="#FFC000" fill-rule="evenodd"/><path d="M1149.97 1034C1155.58 1040.23 1160.29 1045.51 1165 1050.73 1164.82 1051.17 1164.58 1051.56 1164.4 1052 1159.87 1050.86 1154.86 1050.6 1150.94 1048.31 1145.44 1045.13 1149.19 1040.04 1150.03 1034Z" fill="#FFC000" fill-rule="evenodd"/><path d="M859 1431C860.812 1424.06 862.125 1418.94 863.938 1412 868 1417.25 871.188 1421.38 875 1426.31 869.5 1427.94 865 1429.25 859 1431Z" fill="#FFC000" fill-rule="evenodd"/><path d="M865 1351.06C861.801 1356.18 859.242 1360.31 856.299 1365 852.844 1362.23 849.966 1360.13 847.342 1357.72 845.103 1355.63 845.743 1353.53 848.686 1352.97 853.612 1352.11 858.667 1351.74 865 1351Z" fill="#FFC000" fill-rule="evenodd"/><path d="M1240.75 1005.19C1238.51 1005.87 1236.26 1006.55 1234.02 1007.23 1226.37 1009.59 1221.7 1006.51 1220 998 1227.17 999.983 1234.08 1001.9 1241 1003.83 1240.94 1004.26 1240.88 1004.69 1240.75 1005.13Z" fill="#FFC000" fill-rule="evenodd"/><path d="M758.034 1519C757.457 1506.15 764.13 1497.2 776 1494 770.033 1502.31 764.515 1509.99 758.034 1519Z" fill="#FFC000" fill-rule="evenodd"/><path d="M756.438 1548 736.438 1548C736.312 1547.61 736.125 1547.23 736 1546.84 741.125 1544.46 746.125 1541.44 751.5 1540.03 753.125 1539.64 755.813 1543.82 758.001 1545.88 757.501 1546.59 756.938 1547.23 756.438 1547.94Z" fill="#FFC000" fill-rule="evenodd"/><path d="M1568 978.411C1566.43 983.363 1565.11 987.53 1563.66 991.757 1562.53 995.139 1560.27 994.112 1558.63 992.482 1556.37 990.187 1560.65 978.713 1563.91 978.049 1564.79 977.867 1565.86 978.23 1568 978.472Z" fill="#FFC000" fill-rule="evenodd"/><path d="M805 1526C811.7 1541.51 811.634 1547.02 805 1554L805 1526Z" fill="#FFC000" fill-rule="evenodd"/><path d="M1527.01 969.039C1527.21 967.412 1527.21 964.881 1527.89 962.531 1528.16 961.566 1529.73 960.843 1530.68 960 1531.5 960.904 1533 961.868 1533 962.712 1532.8 966.869 1532.25 971.087 1531.57 975.245 1531.43 975.968 1529.87 976.691 1528.84 976.992 1528.5 977.113 1527.28 975.787 1527.14 975.065 1526.87 973.378 1527.07 971.63 1527.07 969.039Z" fill="#FFC000" fill-rule="evenodd"/><path d="M1041.26 912C1043.85 921.393 1039.19 926.186 1034.53 932 1032.17 923.118 1038.3 918.965 1041.26 912Z" fill="#FFC000" fill-rule="evenodd"/><path d="M1028 871C1025.06 879.437 1022.5 880.306 1008 877.7 1015.03 875.342 1021.09 873.295 1028 871Z" fill="#FFC000" fill-rule="evenodd"/><path d="M1069.4 1165C1067.98 1156.58 1069.85 1155.68 1083 1158.31 1077.59 1160.94 1073.72 1162.85 1069.4 1165Z" fill="#FFC000" fill-rule="evenodd"/><path d="M892.001 1211.47C886.205 1213.2 881.732 1214.63 877.197 1216 876.819 1215.5 876.378 1215.01 876 1214.45 878.772 1211.65 881.543 1208.86 884.378 1206 887.339 1208.11 889.103 1209.42 892.001 1211.47Z" fill="#FFC000" fill-rule="evenodd"/><path d="M1202.04 927.001C1201.59 919.552 1204.7 918.32 1215 922.015 1210.14 923.892 1206.25 925.358 1202.04 927.001Z" fill="#FFC000" fill-rule="evenodd"/><path d="M878 1338C882.564 1330.68 887.231 1329.1 892.001 1333.26 887.19 1334.88 882.934 1336.31 878 1338Z" fill="#FFC000" fill-rule="evenodd"/><path d="M996 929.825C1005.7 926.452 1007.88 927.342 1009 936 1004.52 933.899 1000.79 932.117 996 929.825Z" fill="#FFC000" fill-rule="evenodd"/><path d="M698.001 1575.83C693.647 1577.22 689.538 1578.55 685 1580 689.538 1570.64 692.053 1569.82 698.001 1575.83Z" fill="#FFC000" fill-rule="evenodd"/><path d="M1115 1050C1110.57 1047.76 1106.85 1045.93 1103 1043.97 1110.51 1038.71 1114.1 1040.26 1115 1050Z" fill="#FFC000" fill-rule="evenodd"/><path d="M700.773 1407C702.516 1408.58 703.947 1409.86 706 1411.74 701.334 1413.14 697.352 1414.36 692 1416 695.484 1412.41 697.849 1409.98 700.773 1407Z" fill="#FFC000" fill-rule="evenodd"/><path d="M781 1560C785.313 1551.93 787.967 1551.22 795.001 1555.91 790.356 1557.27 786.374 1558.4 781 1560Z" fill="#FFC000" fill-rule="evenodd"/><path d="M1019 1157C1015.25 1155.38 1011.75 1153.87 1008 1152.31 1014.94 1148.13 1018.51 1149.58 1019 1157Z" fill="#FFC000" fill-rule="evenodd"/><text font-family="Montserrat,Montserrat_MSFontService,sans-serif" font-weight="400" font-size="147" transform="matrix(1 0 0 1 1735.04 1430)">connect without words</text></g></svg>